/* XPM */
static char * 0n2_xpm[] = {
"32 32 88 1",
" 	c #535353",
".	c #040204",
"+	c #333333",
"@	c #7F7F7F",
"#	c #787878",
"$	c #020102",
"%	c #1E1E1E",
"&	c #7B7B7B",
"*	c #010101",
"=	c #131313",
"-	c #272727",
";	c #2E2E2E",
">	c #292929",
",	c #AEAEAE",
"'	c #EAEAEA",
")	c #ECECEC",
"!	c #EBEBEB",
"~	c #B9B9B9",
"{	c #232323",
"]	c #BABABA",
"^	c #FDFDFD",
"/	c #FEFEFE",
"(	c #C7C7C7",
"_	c #262626",
":	c #FCFCFC",
"<	c #FFFFFF",
"[	c #C6C6C6",
"}	c #212121",
"|	c #BFBFBF",
"1	c #B5B5B5",
"2	c #A8A8A8",
"3	c #9F9F9F",
"4	c #A0A0A0",
"5	c #9A9A9A",
"6	c #FAFAFA",
"7	c #1F1F1F",
"8	c #0D0D0D",
"9	c #F6F6F6",
"0	c #F3F3F3",
"a	c #838383",
"b	c #4E4E4E",
"c	c #9B9B9B",
"d	c #FBFBFB",
"e	c #9E9E9E",
"f	c #EEEEEE",
"g	c #818181",
"h	c #F2F2F2",
"i	c #868686",
"j	c #9D9D9D",
"k	c #F7F7F7",
"l	c #888888",
"m	c #F9F9F9",
"n	c #848484",
"o	c #F8F8F8",
"p	c #4D4D4D",
"q	c #B8B8B8",
"r	c #878787",
"s	c #515151",
"t	c #505050",
"u	c #F4F4F4",
"v	c #525252",
"w	c #343434",
"x	c #B7B7B7",
"y	c #555555",
"z	c #F5F5F5",
"A	c #323232",
"B	c #858585",
"C	c #5D5D5D",
"D	c #2D2D2D",
"E	c #373737",
"F	c #A4A4A4",
"G	c #383838",
"H	c #545454",
"I	c #C4C4C4",
"J	c #E2E2E2",
"K	c #252525",
"L	c #D6D6D6",
"M	c #D7D7D7",
"N	c #1A1A1A",
"O	c #BBBBBB",
"P	c #BCBCBC",
"Q	c #BDBDBD",
"R	c #636363",
"S	c #7A7A7A",
"T	c #141414",
"U	c #191919",
"V	c #222222",
"W	c #171717",
"                          ......",
" +++@@@@@@@@@@@@@@@@@@@@@@##$$$.",
" +%%%%%%%%%%%%%%%%%%%%$$%%$$$#$.",
" +&%%&&&&&&&&&&&&&&&&&##&&##$$$.",
" +%&**====-+;;+++>======****#$#.",
" +%&**====,')!)!)~{=====****#$#.",
" +%&======]^/^/^/(_=****==**#$#.",
" +%&======]:<//^/[}=****==**#$#.",
" +%&======]^/:|112345 ==****#$#.",
" +%&======]^<6 785960a==****#$#.",
" +%&==**==]^<6b**cd<0a******#$#.",
" +%&==**==]^<6b**e:dfg******#$#.",
".$$#******]^<6b**e:6hi******#$#.",
".$$#******]^<6b**j^<kl******#$#.",
".$$#******]^/mb**c6^9n******#$#.",
".$$#******~:^op**5o6hg******#$#.",
" ++@{{{{{{qd:kp*{cmd0r{{{{{{@+@s",
" ++@{{{{{{qddkt*{5mdui{{{{{{@+@v",
"w%%&==**==x6dmy*{codzn======&%&A",
"w%%&==**==xm:6v*{5oduB======&%&A",
"w%%&====**1od6v*{jd:0n======#$&+",
"w%%&====**1oomy*{3::zB======#$&+",
"w%%&****==1u0fCDEF6:kB======&%&+",
"w%%&****==GtvHIJJ)d:9B======&%#.",
".$%&====*****KLm6d:^kB====**&%#.",
".$%&====*****-M6::/<ki====**&%&A",
".$%&==*******N4OPQQQqR**====&%&w",
".$%%S=********TUDDVVVW**====%%&+",
".$#$$#######################$$$.",
".$$#$$$$$$$$$$$$$$$$$$$$$$$$#$$.",
".$$$$$$$$$$$$$$$$$$$$$$$$$$$$$$.",
"................................"};
