/* XPM */
static char * 1n2_xpm[] = {
"32 32 90 1",
" 	c #535353",
".	c #040204",
"+	c #333333",
"@	c #7F7F7F",
"#	c #787878",
"$	c #020102",
"%	c #1E1E1E",
"&	c #7B7B7B",
"*	c #010101",
"=	c #131313",
"-	c #212121",
";	c #454545",
">	c #424242",
",	c #444444",
"'	c #434343",
")	c #414141",
"!	c #181818",
"~	c #676767",
"{	c #E9E9E9",
"]	c #EFEFEF",
"^	c #EAEAEA",
"/	c #E5E5E5",
"(	c #E8E8E8",
"_	c #DCDCDC",
":	c #3F3F3F",
"<	c #6B6B6B",
"[	c #F1F1F1",
"}	c #F9F9F9",
"|	c #FDFDFD",
"1	c #FEFEFE",
"2	c #FBFBFB",
"3	c #373737",
"4	c #6C6C6C",
"5	c #F7F7F7",
"6	c #FFFFFF",
"7	c #E7E7E7",
"8	c #363636",
"9	c #505050",
"0	c #ADADAD",
"a	c #B0B0B0",
"b	c #D5D5D5",
"c	c #FCFCFC",
"d	c #040404",
"e	c #0F0F0F",
"f	c #1B1B1B",
"g	c #262626",
"h	c #B2B2B2",
"i	c #E6E6E6",
"j	c #202020",
"k	c #FAFAFA",
"l	c #B3B3B3",
"m	c #B4B4B4",
"n	c #323232",
"o	c #B5B5B5",
"p	c #232323",
"q	c #B6B6B6",
"r	c #3E3E3E",
"s	c #515151",
"t	c #525252",
"u	c #343434",
"v	c #080808",
"w	c #1D1D1D",
"x	c #2A2A2A",
"y	c #B8B8B8",
"z	c #4A4A4A",
"A	c #1A1A1A",
"B	c #626262",
"C	c #DADADA",
"D	c #E0E0E0",
"E	c #E1E1E1",
"F	c #F0F0F0",
"G	c #E3E3E3",
"H	c #E2E2E2",
"I	c #6D6D6D",
"J	c #F6F6F6",
"K	c #C9C9C9",
"L	c #F8F8F8",
"M	c #CACACA",
"N	c #545454",
"O	c #C2C2C2",
"P	c #C7C7C7",
"Q	c #C6C6C6",
"R	c #9F9F9F",
"S	c #7A7A7A",
"T	c #0B0B0B",
"U	c #252525",
"V	c #272727",
"W	c #353535",
"X	c #2D2D2D",
"Y	c #2C2C2C",
"                          ......",
" +++@@@@@@@@@@@@@@@@@@@@@@##$$$.",
" +%%%%%%%%%%%%%%%%%%%%$$%%$$$#$.",
" +&%%&&&&&&&&&&&&&&&&&##&&##$$$.",
" +%&**====-;>>,';)!=====****#$#.",
" +%&**====~{]]^/(_:=====****#$#.",
" +%&======<[}|12}/3=****==**#$#.",
" +%&======4[55|6178=****==**#$#.",
" +%&======90a0bc|/8=====****#$#.",
" +%&======defgh}2i8=====****#$#.",
" +%&==**=====jhkci8===******#$#.",
" +%&==**=====jlk|78===******#$#.",
".$$#*********!m21(n*********#$#.",
".$$#*********!mc1{n*********#$#.",
".$$#*********!o|6{n*********#$#.",
".$$#*********!o16{n*********#$#.",
" ++@pppppp***!q16{rppppppppp@+@s",
" ++@pppppp***!q16{rppppppppp@+@t",
"u%%&==**==***!q16{3=========&%&n",
"u%%&==**==***!q16{3=========&%&n",
"u%%&====*****!o16{3=**======#$&+",
"u%%&====*****!q16{u=**======#$&+",
"u%%&****==vw%xy1|^zAgj======&%&+",
"u%%&****==BCDEF1|2GHDl======&%#.",
".$%&====**IJ6116116||K====**&%#.",
".$%&====**IL161111|1|M====**&%&n",
".$%&==****NOPPPPPPPQQR**====&%&u",
".$%%S=****TUVVVVWWXYYU**====%%&+",
".$#$$#######################$$$.",
".$$#$$$$$$$$$$$$$$$$$$$$$$$$#$$.",
".$$$$$$$$$$$$$$$$$$$$$$$$$$$$$$.",
"................................"};
