/* XPM */
static char * 2n2_xpm[] = {
"32 32 88 1",
" 	c #535353",
".	c #040204",
"+	c #333333",
"@	c #7F7F7F",
"#	c #787878",
"$	c #020102",
"%	c #1E1E1E",
"&	c #7B7B7B",
"*	c #010101",
"=	c #131313",
"-	c #6F6F6F",
";	c #DBDBDB",
">	c #E3E3E3",
",	c #E2E2E2",
"'	c #979797",
")	c #7A7A7A",
"!	c #F3F3F3",
"~	c #FDFDFD",
"{	c #FFFFFF",
"]	c #FEFEFE",
"^	c #A8A8A8",
"/	c #F4F4F4",
"(	c #FCFCFC",
"_	c #797979",
":	c #DDDDDD",
"<	c #C9C9C9",
"[	c #C8C8C8",
"}	c #D0D0D0",
"|	c #A0A0A0",
"1	c #2A2A2A",
"2	c #272727",
"3	c #5A5A5A",
"4	c #A9A9A9",
"5	c #9D9D9D",
"6	c #505050",
"7	c #F0F0F0",
"8	c #FAFAFA",
"9	c #9A9A9A",
"0	c #515151",
"a	c #3D3D3D",
"b	c #808080",
"c	c #878787",
"d	c #868686",
"e	c #4F4F4F",
"f	c #030303",
"g	c #393939",
"h	c #4A4A4A",
"i	c #656565",
"j	c #D4D4D4",
"k	c #D3D3D3",
"l	c #8C8C8C",
"m	c #232323",
"n	c #161616",
"o	c #C7C7C7",
"p	c #D7D7D7",
"q	c #303030",
"r	c #252525",
"s	c #2E2E2E",
"t	c #525252",
"u	c #343434",
"v	c #151515",
"w	c #C6C6C6",
"x	c #D5D5D5",
"y	c #323232",
"z	c #5D5D5D",
"A	c #BDBDBD",
"B	c #C2C2C2",
"C	c #9F9F9F",
"D	c #A2A2A2",
"E	c #8A8A8A",
"F	c #1B1B1B",
"G	c #F1F1F1",
"H	c #FBFBFB",
"I	c #9B9B9B",
"J	c #A7A7A7",
"K	c #484848",
"L	c #4D4D4D",
"M	c #4C4C4C",
"N	c #F2F2F2",
"O	c #E9E9E9",
"P	c #EAEAEA",
"Q	c #E8E8E8",
"R	c #9C9C9C",
"S	c #F5F5F5",
"T	c #AAAAAA",
"U	c #A4A4A4",
"V	c #A3A3A3",
"W	c #6C6C6C",
"                          ......",
" +++@@@@@@@@@@@@@@@@@@@@@@##$$$.",
" +%%%%%%%%%%%%%%%%%%%%$$%%$$$#$.",
" +&%%&&&&&&&&&&&&&&&&&##&&##$$$.",
" +%&**======**==========****#$#.",
" +%&**====-;>>>>>>>>,'==****#$#.",
" +%&======)!~~{]~]{{~^**==**#$#.",
" +%&======)/]](]~~{{~^**==**#$#.",
" +%&======_!]~:<[}~]~^==****#$#.",
" +%&======_!{]|123({~4==****#$#.",
" +%&==**==)!{~5**6({~4******#$#.",
" +%&==**==_7(89**0({~4******#$#.",
".$$#******abcd6**0({~^******#$#.",
".$$#*************0({~^******#$#.",
".$$#*************e(]~^******#$#.",
".$$#*********fghhijjkl******#$#.",
" ++@mmmmmm***no{]pqrrmmmmmmm@+@0",
" ++@mmmmmm***no]]psmmmmmmmmm@+@t",
"u%%&==**==***vw](xm=========&%&y",
"u%%&==**==zABB4CDEF=========&%&y",
"u%%&====**_G(HI*mm==**======#$&+",
"u%%&====**_!](5*mm==**======#$&+",
"u%%&****==_!]HJKttLLM+======&%&+",
"u%%&****==_!]~NOOOPOQR======&%#.",
".$%&====**_!]~{{{{{{~^====**&%#.",
".$%&====**)S{{{{{{{{]T====**&%&y",
".$%&==****M5UUUUUUUUVW**====&%&u",
".$%%)=**********mm====**====%%&+",
".$#$$#######################$$$.",
".$$#$$$$$$$$$$$$$$$$$$$$$$$$#$$.",
".$$$$$$$$$$$$$$$$$$$$$$$$$$$$$$.",
"................................"};
