/* XPM */
static char * 3n2_xpm[] = {
"32 32 91 1",
" 	c #535353",
".	c #040204",
"+	c #333333",
"@	c #7F7F7F",
"#	c #787878",
"$	c #020102",
"%	c #1E1E1E",
"&	c #7B7B7B",
"*	c #010101",
"=	c #131313",
"-	c #171717",
";	c #212121",
">	c #181818",
",	c #939393",
"'	c #E4E4E4",
")	c #EAEAEA",
"!	c #E8E8E8",
"~	c #9B9B9B",
"{	c #9C9C9C",
"]	c #F7F7F7",
"^	c #FFFFFF",
"/	c #FEFEFE",
"(	c #FDFDFD",
"_	c #FCFCFC",
":	c #A7A7A7",
"<	c #FBFBFB",
"[	c #767676",
"}	c #B7B7B7",
"|	c #BDBDBD",
"1	c #BCBCBC",
"2	c #CCCCCC",
"3	c #A8A8A8",
"4	c #0F0F0F",
"5	c #1C1C1C",
"6	c #242424",
"7	c #191919",
"8	c #727272",
"9	c #6E6E6E",
"0	c #151515",
"a	c #272727",
"b	c #2E2E2E",
"c	c #2C2C2C",
"d	c #717171",
"e	c #F8F8F8",
"f	c #F9F9F9",
"g	c #A5A5A5",
"h	c #1D1D1D",
"i	c #B6B6B6",
"j	c #D2D2D2",
"k	c #D3D3D3",
"l	c #AEAEAE",
"m	c #828282",
"n	c #818181",
"o	c #262626",
"p	c #DDDDDD",
"q	c #C5C5C5",
"r	c #1A1A1A",
"s	c #DFDFDF",
"t	c #BABABA",
"u	c #D4D4D4",
"v	c #4E4E4E",
"w	c #4A4A4A",
"x	c #232323",
"y	c #060606",
"z	c #080808",
"A	c #6F6F6F",
"B	c #A9A9A9",
"C	c #515151",
"D	c #FAFAFA",
"E	c #525252",
"F	c #343434",
"G	c #020202",
"H	c #040404",
"I	c #323232",
"J	c #757575",
"K	c #B8B8B8",
"L	c #BBBBBB",
"M	c #565656",
"N	c #707070",
"O	c #9A9A9A",
"P	c #F6F6F6",
"Q	c #404040",
"R	c #EBEBEB",
"S	c #E5E5E5",
"T	c #B1B1B1",
"U	c #B4B4B4",
"V	c #777777",
"W	c #7A7A7A",
"X	c #030303",
"Y	c #0B0B0B",
"Z	c #0C0C0C",
"                          ......",
" +++@@@@@@@@@@@@@@@@@@@@@@##$$$.",
" +%%%%%%%%%%%%%%%%%%%%$$%%$$$#$.",
" +&%%&&&&&&&&&&&&&&&&&##&&##$$$.",
" +%&**====-;>>;;;;;;;-==****#$#.",
" +%&**====,'))))))))!~==****#$#.",
" +%&======{]^/////(/_:**==**#$#.",
" +%&======{]/(//////<:**==**#$#.",
" +%&======[}|11112(/_3==****#$#.",
" +%&======45666678_^_3==****#$#.",
" +%&==**======***9_^_3******#$#.",
" +%&==**=====0abcdef]g******#$#.",
".$$#*********hijklmn@ ******#$#.",
".$$#*********op//qr*********#$#.",
".$$#*********os^^q7*********#$#.",
".$$#*********%tuulvwwb******#$#.",
" ++@xxxxxx****yzxA</<Bxxxxxx@+@C",
" ++@xxxxxx******xA<(DBxxxxxx@+@E",
"F%%&==**==*GHH**x9_/_3======&%&I",
"F%%&==**==JKLLM*xN_/_3======&%&I",
"F%%&====**OP_f[*xN_/_:======#$&+",
"F%%&====**~P/f[*xN_/_:======#$&+",
"F%%&****==~e^<nFQ&(/<3======&%&+",
"F%%&****==~e^/RSSR//_3======&%#.",
".$%&====**~f^^((////_3====**&%#.",
".$%&====**{f^^^^^^^^(3====**&%&I",
".$%&==****9TiiiiiiiiUV**====&%&F",
".$%%W=****XYZZZZaa7770**====%%&+",
".$#$$#######################$$$.",
".$$#$$$$$$$$$$$$$$$$$$$$$$$$#$$.",
".$$$$$$$$$$$$$$$$$$$$$$$$$$$$$$.",
"................................"};
