/* XPM */
static char * 4n2_xpm[] = {
"32 32 70 1",
" 	c #535353",
".	c #040204",
"+	c #333333",
"@	c #7F7F7F",
"#	c #787878",
"$	c #020102",
"%	c #1E1E1E",
"&	c #7B7B7B",
"*	c #010101",
"=	c #131313",
"-	c #292929",
";	c #373737",
">	c #313131",
",	c #171717",
"'	c #202020",
")	c #383838",
"!	c #232323",
"~	c #ACACAC",
"{	c #EAEAEA",
"]	c #EDEDED",
"^	c #E6E6E6",
"/	c #484848",
"(	c #828282",
"_	c #EBEBEB",
":	c #ECECEC",
"<	c #909090",
"[	c #B4B4B4",
"}	c #FBFBFB",
"|	c #FFFFFF",
"1	c #F6F6F6",
"2	c #4D4D4D",
"3	c #8B8B8B",
"4	c #9A9A9A",
"5	c #FEFEFE",
"6	c #FCFCFC",
"7	c #4C4C4C",
"8	c #FAFAFA",
"9	c #B5B5B5",
"0	c #898989",
"a	c #999999",
"b	c #D1D1D1",
"c	c #D4D4D4",
"d	c #CFCFCF",
"e	c #606060",
"f	c #9D9D9D",
"g	c #070707",
"h	c #080808",
"i	c #343434",
"j	c #F1F1F1",
"k	c #FDFDFD",
"l	c #9B9B9B",
"m	c #515151",
"n	c #323232",
"o	c #F0F0F0",
"p	c #525252",
"q	c #EFEFEF",
"r	c #A8A8A8",
"s	c #B1B1B1",
"t	c #CACACA",
"u	c #8C8C8C",
"v	c #6A6A6A",
"w	c #BEBEBE",
"x	c #C0C0C0",
"y	c #BDBDBD",
"z	c #767676",
"A	c #7A7A7A",
"B	c #262626",
"C	c #242424",
"D	c #252525",
"E	c #1A1A1A",
"                          ......",
" +++@@@@@@@@@@@@@@@@@@@@@@##$$$.",
" +%%%%%%%%%%%%%%%%%%%%$$%%$$$#$.",
" +&%%&&&&&&&&&&&&&&&&&##&&##$$$.",
" +%&**====-;+>,=='));!==****#$#.",
" +%&**====~{]^/==(_:{<==****#$#.",
" +%&======[}|12==3}|}4**==**#$#.",
" +%&======[}|12==3}5}4**==**#$#.",
" +%&======[}|12=*36|}4==****#$#.",
" +%&======[}|12=*36|}4==****#$#.",
" +%&==**==[}|17**36|}4******#$#.",
" +%&==**==[}|17**36|}4******#$#.",
".$$#******[}|17**3}|}4******#$#.",
".$$#******[8517**36|}4******#$#.",
".$$#******9}|17**0}|}4******#$#.",
".$$#******abcde7/f6|}4******#$#.",
" ++@!!!!!!ghhij55k55}l!!!!!!@+@m",
" ++@!!!!!!***nokk555}l!!!!!!@+@p",
"i%%&==**==***nq5k555}4======&%&n",
"i%%&==**==***%rsstk5}4======&%&n",
"i%%&====********!0}|}4======#$&+",
"i%%&====********!3}|}4======#$&+",
"i%%&****==******!3}|}4======&%&+",
"i%%&****==******!u6|}4======&%#.",
".$%&====********!u6|}4====**&%#.",
".$%&====********!u6|6l====**&%&n",
".$%&==**********!vwxyz**====&%&i",
".$%%A=**********!BCDCE**====%%&+",
".$#$$#######################$$$.",
".$$#$$$$$$$$$$$$$$$$$$$$$$$$#$$.",
".$$$$$$$$$$$$$$$$$$$$$$$$$$$$$$.",
"................................"};
