/* XPM */
static char * 5n2_xpm[] = {
"32 32 101 2",
"  	c #535353",
". 	c #040204",
"+ 	c #333333",
"@ 	c #7F7F7F",
"# 	c #787878",
"$ 	c #020102",
"% 	c #1E1E1E",
"& 	c #7B7B7B",
"* 	c #010101",
"= 	c #131313",
"- 	c #252525",
"; 	c #2E2E2E",
"> 	c #282828",
", 	c #2D2D2D",
"' 	c #1B1B1B",
") 	c #B2B2B2",
"! 	c #EAEAEA",
"~ 	c #EBEBEB",
"{ 	c #E6E6E6",
"] 	c #727272",
"^ 	c #BCBCBC",
"/ 	c #FDFDFD",
"( 	c #FEFEFE",
"_ 	c #F6F6F6",
": 	c #7A7A7A",
"< 	c #FFFFFF",
"[ 	c #F5F5F5",
"} 	c #7C7C7C",
"| 	c #BBBBBB",
"1 	c #B9B9B9",
"2 	c #B8B8B8",
"3 	c #B7B7B7",
"4 	c #B3B3B3",
"5 	c #585858",
"6 	c #EEEEEE",
"7 	c #2C2C2C",
"8 	c #212121",
"9 	c #191919",
"0 	c #181818",
"a 	c #171717",
"b 	c #EDEDED",
"c 	c #3B3B3B",
"d 	c #313131",
"e 	c #323232",
"f 	c #373737",
"g 	c #363636",
"h 	c #353535",
"i 	c #FCFCFC",
"j 	c #F9F9F9",
"k 	c #D3D3D3",
"l 	c #D1D1D1",
"m 	c #D5D5D5",
"n 	c #CFCFCF",
"o 	c #CACACA",
"p 	c #656565",
"q 	c #FBFBFB",
"r 	c #FAFAFA",
"s 	c #F1F1F1",
"t 	c #797979",
"u 	c #F8F8F8",
"v 	c #9D9D9D",
"w 	c #D2D2D2",
"x 	c #7D7D7D",
"y 	c #232323",
"z 	c #080808",
"A 	c #A6A6A6",
"B 	c #F4F4F4",
"C 	c #808080",
"D 	c #515151",
"E 	c #A8A8A8",
"F 	c #F7F7F7",
"G 	c #F2F2F2",
"H 	c #7E7E7E",
"I 	c #525252",
"J 	c #343434",
"K 	c #A9A9A9",
"L 	c #A4A4A4",
"M 	c #A7A7A7",
"N 	c #202020",
"O 	c #303030",
"P 	c #2F2F2F",
"Q 	c #383838",
"R 	c #A1A1A1",
"S 	c #EFEFEF",
"T 	c #DEDEDE",
"U 	c #E3E3E3",
"V 	c #E5E5E5",
"W 	c #E2E2E2",
"X 	c #DFDFDF",
"Y 	c #E1E1E1",
"Z 	c #4D4D4D",
"` 	c #4B4B4B",
" .	c #4C4C4C",
"..	c #242424",
"+.	c #BABABA",
"@.	c #898989",
"#.	c #161616",
"$.	c #0E0E0E",
"%.	c #151515",
"&.	c #2B2B2B",
"*.	c #262626",
"                                                    . . . . . . ",
"  + + + @ @ @ @ @ @ @ @ @ @ @ @ @ @ @ @ @ @ @ @ @ @ # # $ $ $ . ",
"  + % % % % % % % % % % % % % % % % % % % % $ $ % % $ $ $ # $ . ",
"  + & % % & & & & & & & & & & & & & & & & & # # & & # # $ $ $ . ",
"  + % & * * = = = = - ; > > ; ; ; ; ; ; , ' = = * * * * # $ # . ",
"  + % & * * = = = = ) ! ~ ~ ~ ~ ~ ~ ~ ! { ] = = * * * * # $ # . ",
"  + % & = = = = = = ^ / ( / ( ( ( ( ( / _ : * * = = * * # $ # . ",
"  + % & = = = = = = ^ / < ( ( ( ( ( ( / [ } * * = = * * # $ # . ",
"  + % & = = = = = = | / ( _ 1 2 2 3 3 3 4 5 = = * * * * # $ # . ",
"  + % & = = = = = = | / < 6 7 8 9 0 8 8 8 a = = * * * * # $ # . ",
"  + % & = = * * = = ^ / ( b % * * * = = = = * * * * * * # $ # . ",
"  + % & = = * * = = ^ / ( b c d e + f g h % * * * * * * # $ # . ",
". $ $ # * * * * * * | i ( j k l k m m n o p * * * * * * # $ # . ",
". $ $ # * * * * * * | i / ( q q r / < / s t * * * * * * # $ # . ",
". $ $ # * * * * * * | i / i i q q ( < ( u : * * * * * * # $ # . ",
". $ $ # * * * * * * v w k l w l k ~ j r u x * * * * * * # $ # . ",
"  + + @ y y y y y y z z z z z z y A B _ [ C y y y y y y @ + @ D ",
"  + + @ y y y y y y * * * * * * y E F _ G H y y y y y y @ + @ I ",
"J % % & = = * * = = * * * * * * y K q / u @ = = = = = = & % & e ",
"J % % & = = * * = = * * * * * * y L q ( F x = = = = = = & % & e ",
"J % % & = = = = * * * * * * * * y M u j B : = = = = = = # $ & + ",
"J % % & = = = = * * * * * * * * y K q q B : = = = = = = # $ & + ",
"J % % & * * * * = = N ; O O O P Q R S G b # = = = = = = & % & + ",
"J % % & * * * * = = E T U V W X Y v Z `  ...= = = = = = & % # . ",
". $ % & = = = = * * +.j q ( i r / L a = = = = = = = * * & % # . ",
". $ % & = = = = * * +.r i ( < i i A 0 = = = = = = = * * & % & e ",
". $ % & = = * * * * @.3 1 +.| 1 | t #.= = = * * = = = = & % & J ",
". $ % % : = * * * * $.%.%.#.#.#.&.*.= = = = * * = = = = % % & + ",
". $ # $ $ # # # # # # # # # # # # # # # # # # # # # # # $ $ $ . ",
". $ $ # $ $ $ $ $ $ $ $ $ $ $ $ $ $ $ $ $ $ $ $ $ $ $ $ # $ $ . ",
". $ $ $ $ $ $ $ $ $ $ $ $ $ $ $ $ $ $ $ $ $ $ $ $ $ $ $ $ $ $ . ",
". . . . . . . . . . . . . . . . . . . . . . . . . . . . . . . . "};
