/* XPM */
static char * 6n2_xpm[] = {
"32 32 99 2",
"  	c #535353",
". 	c #040204",
"+ 	c #333333",
"@ 	c #7F7F7F",
"# 	c #787878",
"$ 	c #020102",
"% 	c #1E1E1E",
"& 	c #7B7B7B",
"* 	c #010101",
"= 	c #131313",
"- 	c #252525",
"; 	c #393939",
"> 	c #383838",
", 	c #373737",
"' 	c #2C2C2C",
") 	c #040404",
"! 	c #959595",
"~ 	c #EDEDED",
"{ 	c #EBEBEB",
"] 	c #E8E8E8",
"^ 	c #B9B9B9",
"/ 	c #999999",
"( 	c #F7F7F7",
"_ 	c #FCFCFC",
": 	c #FEFEFE",
"< 	c #F9F9F9",
"[ 	c #C1C1C1",
"} 	c #9A9A9A",
"| 	c #F6F6F6",
"1 	c #FAFAFA",
"2 	c #C2C2C2",
"3 	c #3D3D3D",
"4 	c #9B9B9B",
"5 	c #A0A0A0",
"6 	c #A5A5A5",
"7 	c #A3A3A3",
"8 	c #AFAFAF",
"9 	c #B3B3B3",
"0 	c #B6B6B6",
"a 	c #B2B2B2",
"b 	c #8C8C8C",
"c 	c #636363",
"d 	c #F3F3F3",
"e 	c #141414",
"f 	c #151515",
"g 	c #1B1B1B",
"h 	c #5D5D5D",
"i 	c #F2F2F2",
"j 	c #B7B7B7",
"k 	c #2F2F2F",
"l 	c #343434",
"m 	c #5C5C5C",
"n 	c #F0F0F0",
"o 	c #FBFBFB",
"p 	c #E7E7E7",
"q 	c #D1D1D1",
"r 	c #D3D3D3",
"s 	c #D4D4D4",
"t 	c #A6A6A6",
"u 	c #606060",
"v 	c #F4F4F4",
"w 	c #FDFDFD",
"x 	c #FFFFFF",
"y 	c #C4C4C4",
"z 	c #646464",
"A 	c #F5F5F5",
"B 	c #D2D2D2",
"C 	c #F8F8F8",
"D 	c #232323",
"E 	c #5F5F5F",
"F 	c #262626",
"G 	c #E0E0E0",
"H 	c #C5C5C5",
"I 	c #515151",
"J 	c #5E5E5E",
"K 	c #525252",
"L 	c #B8B8B8",
"M 	c #DFDFDF",
"N 	c #323232",
"O 	c #BCBCBC",
"P 	c #212121",
"Q 	c #363636",
"R 	c #303030",
"S 	c #D9D9D9",
"T 	c #BEBEBE",
"U 	c #F1F1F1",
"V 	c #E2E2E2",
"W 	c #E3E3E3",
"X 	c #4F4F4F",
"Y 	c #505050",
"Z 	c #3F3F3F",
"` 	c #454545",
" .	c #484848",
"..	c #BABABA",
"+.	c #C0C0C0",
"@.	c #7A7A7A",
"#.	c #050505",
"$.	c #1C1C1C",
"%.	c #1D1D1D",
"                                                    . . . . . . ",
"  + + + @ @ @ @ @ @ @ @ @ @ @ @ @ @ @ @ @ @ @ @ @ @ # # $ $ $ . ",
"  + % % % % % % % % % % % % % % % % % % % % $ $ % % $ $ $ # $ . ",
"  + & % % & & & & & & & & & & & & & & & & & # # & & # # $ $ $ . ",
"  + % & * * = = = = = = * * - ; > , , > > ' = = * * * * # $ # . ",
"  + % & * * = = = = = = * ) ! ~ ~ { ] { { ^ = = * * * * # $ # . ",
"  + % & = = = = = = = = = = / ( _ : < < < [ * * = = * * # $ # . ",
"  + % & = = = = = = = = = = } | 1 : 1 < 1 2 * * = = * * # $ # . ",
"  + % & = = = = = = 3 4 5 6 7 8 9 0 a a a b = = * * * * # $ # . ",
"  + % & = = = = = = c d | | ^ e f f % % % g = = * * * * # $ # . ",
"  + % & = = * * = = c | : | 0 * * * = = = = * * * * * * # $ # . ",
"  + % & = = * * = = h i : < j k l l > > > k * * * * * * # $ # . ",
". $ $ # * * * * * * m n : o p q r s s s s t * * * * * * # $ # . ",
". $ $ # * * * * * * u v : _ 1 _ _ w w x : y * * * * * * # $ # . ",
". $ $ # * * * * * * z A _ o _ w w x x x w y * * * * * * # $ # . ",
". $ $ # * * * * * * u i o _ { B s r C : : y * * * * * * # $ # . ",
"  + + @ D D D D D D E i o < j * F D G x : H D D D D D D @ + @ I ",
"  + + @ D D D D D D J v o 1 ^ * D D G x : H D D D D D D @ + @ K ",
"l % % & = = * * = = E v w o L * D D M x : y = = = = = = & % & N ",
"l % % & = = * * = = u A : _ ^ * D D G : : y = = = = = = & % & N ",
"l % % & = = = = * * u A x _ ^ * D D M : : y = = = = = = # $ & + ",
"l % % & = = = = * * E | x _ ^ * D D M : w y = = = = = = # $ & + ",
"l % % & * * * * = = u | : o O P Q R S A A T = = = = = = & % & + ",
"l % % & * * * * = = u | : w U V W W E X Y Z = = = = = = & % # . ",
". $ % & = = = = * * u | : : : w w w 3 = = = = = = = * * & % # . ",
". $ % & = = = = * * u ( : x x x : x ` = = = = = = = * * & % & N ",
". $ % & = = * * * *  ...+.[ [ [ +.+.N = = = * * = = = = & % & l ",
". $ % % @.= * * * * #.$.%.%.%.%.k k = = = = * * = = = = % % & + ",
". $ # $ $ # # # # # # # # # # # # # # # # # # # # # # # $ $ $ . ",
". $ $ # $ $ $ $ $ $ $ $ $ $ $ $ $ $ $ $ $ $ $ $ $ $ $ $ # $ $ . ",
". $ $ $ $ $ $ $ $ $ $ $ $ $ $ $ $ $ $ $ $ $ $ $ $ $ $ $ $ $ $ . ",
". . . . . . . . . . . . . . . . . . . . . . . . . . . . . . . . "};
