/* XPM */
static char * 7n2_xpm[] = {
"32 32 83 1",
" 	c #535353",
".	c #040204",
"+	c #333333",
"@	c #7F7F7F",
"#	c #787878",
"$	c #020102",
"%	c #1E1E1E",
"&	c #7B7B7B",
"*	c #010101",
"=	c #131313",
"-	c #1D1D1D",
";	c #323232",
">	c #2E2E2E",
",	c #282828",
"'	c #757575",
")	c #E8E8E8",
"!	c #ECECEC",
"~	c #EBEBEB",
"{	c #E9E9E9",
"]	c #B2B2B2",
"^	c #7E7E7E",
"/	c #F8F8F8",
"(	c #FFFFFF",
"_	c #FEFEFE",
":	c #FDFDFD",
"<	c #BCBCBC",
"[	c #FCFCFC",
"}	c #595959",
"|	c #B4B4B4",
"1	c #B6B6B6",
"2	c #B7B7B7",
"3	c #B8B8B8",
"4	c #F7F7F7",
"5	c #BDBDBD",
"6	c #060606",
"7	c #181818",
"8	c #202020",
"9	c #171717",
"0	c #303030",
"a	c #EDEDED",
"b	c #292929",
"c	c #272727",
"d	c #EEEEEE",
"e	c #2D2D2D",
"f	c #4C4C4C",
"g	c #4B4B4B",
"h	c #525252",
"i	c #CACACA",
"j	c #D4D4D4",
"k	c #D2D2D2",
"l	c #A0A0A0",
"m	c #232323",
"n	c #0B0B0B",
"o	c #A8A8A8",
"p	c #424242",
"q	c #262626",
"r	c #252525",
"s	c #515151",
"t	c #A7A7A7",
"u	c #3E3E3E",
"v	c #343434",
"w	c #050505",
"x	c #0F0F0F",
"y	c #373737",
"z	c #5A5A5A",
"A	c #A3A3A3",
"B	c #AFAFAF",
"C	c #AEAEAE",
"D	c #7C7C7C",
"E	c #F6F6F6",
"F	c #FAFAFA",
"G	c #A5A5A5",
"H	c #A4A4A4",
"I	c #7D7D7D",
"J	c #FBFBFB",
"K	c #F9F9F9",
"L	c #5C5C5C",
"M	c #B9B9B9",
"N	c #7A7A7A",
"O	c #080808",
"P	c #191919",
"Q	c #1A1A1A",
"R	c #0D0D0D",
"                          ......",
" +++@@@@@@@@@@@@@@@@@@@@@@##$$$.",
" +%%%%%%%%%%%%%%%%%%%%$$%%$$$#$.",
" +&%%&&&&&&&&&&&&&&&&&##&&##$$$.",
" +%&**====-;>>+++++++,==****#$#.",
" +%&**====')!~!!!!!~{]==****#$#.",
" +%&======^/((______:<**==**#$#.",
" +%&======^/________[<**==**#$#.",
" +%&======}|1211134_[5==****#$#.",
" +%&======67888890a(:5==****#$#.",
" +%&==**======***ba(:5******#$#.",
" +%&==**======***ba(:5******#$#.",
".$$#*************ba_:<******#$#.",
".$$#*************,a:[<******#$#.",
".$$#*************cd_:<******#$#.",
".$$#**********efghijkl******#$#.",
" ++@mmmmmm***no_:/pqrrmmmmmm@+@s",
" ++@mmmmmm***nt(:/ummmmmmmmm@+@h",
"v%%&==**==*wwxo_:/y=========&%&;",
"v%%&==**==z221ABBCc=========&%&;",
"v%%&====**DE[FG*mm==**======#$&+",
"v%%&====**D/_[H*mm==**======#$&+",
"v%%&****==I/(JG*mm==========&%&+",
"v%%&****==^/([G*mm==========&%#.",
".$%&====**^/([G*mm========**&%#.",
".$%&====**IK([G*mm========**&%&;",
".$%&==****LM55N*mm====**====&%&v",
".$%%N=****OPQPR*mm====**====%%&+",
".$#$$#######################$$$.",
".$$#$$$$$$$$$$$$$$$$$$$$$$$$#$$.",
".$$$$$$$$$$$$$$$$$$$$$$$$$$$$$$.",
"................................"};
