/* XPM */
static char * 8n2_xpm[] = {
"32 32 90 1",
" 	c #535353",
".	c #040204",
"+	c #333333",
"@	c #7F7F7F",
"#	c #787878",
"$	c #020102",
"%	c #1E1E1E",
"&	c #7B7B7B",
"*	c #010101",
"=	c #131313",
"-	c #161616",
";	c #212121",
">	c #181818",
",	c #878787",
"'	c #E7E7E7",
")	c #EAEAEA",
"!	c #A1A1A1",
"~	c #939393",
"{	c #FAFAFA",
"]	c #FFFFFF",
"^	c #FDFDFD",
"/	c #FEFEFE",
"(	c #AAAAAA",
"_	c #929292",
":	c #D3D3D3",
"<	c #BBBBBB",
"[	c #BCBCBC",
"}	c #C3C3C3",
"|	c #FBFBFB",
"1	c #ABABAB",
"2	c #FCFCFC",
"3	c #909090",
"4	c #202020",
"5	c #1A1A1A",
"6	c #595959",
"7	c #F6F6F6",
"8	c #8C8C8C",
"9	c #545454",
"0	c #F7F7F7",
"a	c #8E8E8E",
"b	c #2B2B2B",
"c	c #2D2D2D",
"d	c #5D5D5D",
"e	c #F2F2F2",
"f	c #F9F9F9",
"g	c #A8A8A8",
"h	c #474747",
"i	c #7E7E7E",
"j	c #818181",
"k	c #A6A6A6",
"l	c #D2D2D2",
"m	c #CACACA",
"n	c #828282",
"o	c #101010",
"p	c #B4B4B4",
"q	c #EDEDED",
"r	c #2A2A2A",
"s	c #EEEEEE",
"t	c #222222",
"u	c #272727",
"v	c #4C4C4C",
"w	c #4A4A4A",
"x	c #A2A2A2",
"y	c #D4D4D4",
"z	c #D5D5D5",
"A	c #494949",
"B	c #323232",
"C	c #232323",
"D	c #565656",
"E	c #ACACAC",
"F	c #515151",
"G	c #919191",
"H	c #525252",
"I	c #343434",
"J	c #555555",
"K	c #8D8D8D",
"L	c #959595",
"M	c #414141",
"N	c #676767",
"O	c #E5E5E5",
"P	c #E6E6E6",
"Q	c #E9E9E9",
"R	c #B3B3B3",
"S	c #B6B6B6",
"T	c #7A7A7A",
"U	c #030303",
"V	c #0B0B0B",
"W	c #0C0C0C",
"X	c #191919",
"Y	c #151515",
"                          ......",
" +++@@@@@@@@@@@@@@@@@@@@@@##$$$.",
" +%%%%%%%%%%%%%%%%%%%%$$%%$$$#$.",
" +&%%&&&&&&&&&&&&&&&&&##&&##$$$.",
" +%&**====-;>>;;;;;;;>==****#$#.",
" +%&**====,'))))))))'!==****#$#.",
" +%&======~{]^]////]{(**==**#$#.",
" +%&======~{]]^^^//]{(**==**#$#.",
" +%&======_{]^:<[}|]{1==****#$#.",
" +%&======_{]234567]{1==****#$#.",
" +%&==**==~{]28**97]{1******#$#.",
" +%&==**==37{0abcdef7g******#$#.",
".$$#******hijjkllmnj@9******#$#.",
".$$#*********op]]qr*********#$#.",
".$$#*********op//st*********#$#.",
".$$#******uvwvxyzm wAB******#$#.",
" ++@CCCCCC_f/|8*CD7^{ECCCCCC@+@F",
" ++@CCCCCCGf^28*CD7/f1CCCCCC@+@H",
"I%%&==**==~f/2a*CJ7/{(======&%&B",
"I%%&==**==~{]^8*CD7]{1======&%&B",
"I%%&====**_{]28*CD7/{(======#$&+",
"I%%&====**_{]2K*CD7]{(======#$&+",
"I%%&****==~{]2LIMN7]{1======&%&+",
"I%%&****==~{]/sOPQ2^{1======&%#.",
".$%&====**~{]/^^//]^{1====**&%#.",
".$%&====**~{]]]]]]]]|1====**&%&B",
".$%&==****NRSSSSSSSSRT**====&%&I",
".$%%T=****UVWWWWuuXXXY**====%%&+",
".$#$$#######################$$$.",
".$$#$$$$$$$$$$$$$$$$$$$$$$$$#$$.",
".$$$$$$$$$$$$$$$$$$$$$$$$$$$$$$.",
"................................"};
