/* XPM */
static char * 9n2_xpm[] = {
"32 32 81 1",
" 	c #535353",
".	c #040204",
"+	c #333333",
"@	c #7F7F7F",
"#	c #787878",
"$	c #020102",
"%	c #1E1E1E",
"&	c #7B7B7B",
"*	c #010101",
"=	c #131313",
"-	c #1B1B1B",
";	c #282828",
">	c #212121",
",	c #242424",
"'	c #9C9C9C",
")	c #E8E8E8",
"!	c #EBEBEB",
"~	c #EAEAEA",
"{	c #CCCCCC",
"]	c #292929",
"^	c #A9A9A9",
"/	c #FBFBFB",
"(	c #FEFEFE",
"_	c #FDFDFD",
":	c #DDDDDD",
"<	c #2C2C2C",
"[	c #A8A8A8",
"}	c #DBDBDB",
"|	c #A7A7A7",
"1	c #CBCBCB",
"2	c #BABABA",
"3	c #B1B1B1",
"4	c #9D9D9D",
"5	c #9F9F9F",
"6	c #9B9B9B",
"7	c #606060",
"8	c #FFFFFF",
"9	c #FCFCFC",
"0	c #757575",
"a	c #202020",
"b	c #161616",
"c	c #7C7C7C",
"d	c #F7F7F7",
"e	c #F5F5F5",
"f	c #999999",
"g	c #707070",
"h	c #FAFAFA",
"i	c #F8F8F8",
"j	c #6F6F6F",
"k	c #9A9A9A",
"l	c #8C8C8C",
"m	c #D3D3D3",
"n	c #D4D4D4",
"o	c #767676",
"p	c #494949",
"q	c #8D8D8D",
"r	c #232323",
"s	c #060606",
"t	c #080808",
"u	c #C7C7C7",
"v	c #515151",
"w	c #1D1D1D",
"x	c #525252",
"y	c #343434",
"z	c #1C1C1C",
"A	c #C5C5C5",
"B	c #323232",
"C	c #0F0F0F",
"D	c #868686",
"E	c #ACACAC",
"F	c #C2C2C2",
"G	c #7A7A7A",
"H	c #F6F6F6",
"I	c #F9F9F9",
"J	c #F4F4F4",
"K	c #979797",
"L	c #595959",
"M	c #B3B3B3",
"N	c #B5B5B5",
"O	c #B0B0B0",
"P	c #6E6E6E",
"                          ......",
" +++@@@@@@@@@@@@@@@@@@@@@@##$$$.",
" +%%%%%%%%%%%%%%%%%%%%$$%%$$$#$.",
" +&%%&&&&&&&&&&&&&&&&&##&&##$$$.",
" +%&**====-;>>;;;,======****#$#.",
" +%&**====')!~!~!{]=====****#$#.",
" +%&======^/(_(((:<=****==**#$#.",
" +%&======[/((((_}]=****==**#$#.",
" +%&======|/(_12234567==****#$#.",
" +%&======|/890abcd/ef==****#$#.",
" +%&==**==[/89g**&h8i6******#$#.",
" +%&==**==[/8/g**&h8i6******#$#.",
".$$#******|/(/j**&h8ik******#$#.",
".$$#******|/(9j**&/8ik******#$#.",
".$$#******|/(9j**&/8ik******#$#.",
".$$#******lmnnoppqh8ik******#$#.",
" ++@rrrrrrsttau(___8i'rrrrrr@+@v",
" ++@rrrrrr***wu(9_(8i'rrrrrr@+@x",
"y%%&==**==***zA__((8ik======&%&B",
"y%%&==**==***CDEEFh(dk======&%&B",
"y%%&====********rGh(Hf======#$&+",
"y%%&====********rcI9ef======#$&+",
"y%%&****==******rci_d'======&%&+",
"y%%&****==******rci9i'======&%#.",
".$%&====********r&d/J'====**&%#.",
".$%&====********r&ihJK====**&%&B",
".$%&==**********rLMNOP**====&%&y",
".$%%G=**********r,zzzb**====%%&+",
".$#$$#######################$$$.",
".$$#$$$$$$$$$$$$$$$$$$$$$$$$#$$.",
".$$$$$$$$$$$$$$$$$$$$$$$$$$$$$$.",
"................................"};
