/* XPM */
static char * 19_xpm[] = {
"32 32 2 1",
" 	c #1D1D1D",
".	c #000000",
"  ..            ..        ..    ",
"  ..            ..        ..    ",
"    ..          ..        ..    ",
"    ..          ..        ..    ",
"      ............      ..      ",
"      ............      ..      ",
"    ..          ..      ..      ",
"    ..          ..      ..      ",
"....              ..  ..      ..",
"....              ..  ..      ..",
"    ..              ..      ..  ",
"    ..              ..      ..  ",
"      ..            ..    ..    ",
"      ..            ..    ..    ",
"        ..            ....      ",
"        ..            ....      ",
"      ..  ..      ....    ..    ",
"      ..  ..      ....    ..    ",
"    ..      ......          ..  ",
"    ..      ......          ..  ",
"....      ..      ..          ..",
"....      ..      ..          ..",
"          ..        ..          ",
"          ..        ..          ",
"        ..  ..        ..        ",
"        ..  ..        ..        ",
"      ..    ..        ..    ....",
"      ..    ..        ..    ....",
"..  ..        ..      ..  ..    ",
"..  ..        ..      ..  ..    ",
"  ..          ..        ..      ",
"  ..          ..        ..      "};
