/* XPM */
static char * 05_xpm[] = {
"32 32 42 1",
" 	c #1D1D1D",
".	c #000000",
"+	c #D9E1E8",
"@	c #C5C7C7",
"#	c #EBEEEF",
"$	c #FDFFFF",
"%	c #E6E9EB",
"&	c #E1E7ED",
"*	c #F7FAFB",
"=	c #EDEEEE",
"-	c #EDF1F3",
";	c #FAFDFD",
">	c #E7F2F3",
",	c #F5F9F9",
"'	c #FFFFFF",
")	c #DAE3E7",
"!	c #ECF2F3",
"~	c #F1F5F6",
"{	c #F9FCFC",
"]	c #E4EDF2",
"^	c #EBF4F6",
"/	c #F8FBFB",
"(	c #F6FFFF",
"_	c #F0F5F6",
":	c #9EA8C0",
"<	c #CBD4DA",
"[	c #C1CAD4",
"}	c #E1EAEE",
"|	c #EAF6FD",
"1	c #8D98B7",
"2	c #E0E9EC",
"3	c #FCFEFF",
"4	c #E8EDEF",
"5	c #C9D2D7",
"6	c #EFF1F3",
"7	c #D6DDE2",
"8	c #F4F6F7",
"9	c #EEF5FB",
"0	c #DBE4E8",
"a	c #ECF1F4",
"b	c #FDFFFD",
"c	c #F4FDFE",
"  ..     +   ......       ..    ",
"  ..    @+#..........     ..    ",
"    ..  $+$...........    ..    ",
"    ..  %&*............   ..    ",
"      ..=-;............ ..      ",
"      ..$>,...............      ",
"    ..  ')!...............      ",
"    ..  $)~...............      ",
"....    $)$.............      ..",
"....    '){.............      ..",
"    ..  $]!.............    ..  ",
"    ..  $^/.............    ..  ",
"      ..$(_.............  ..    ",
"      ..$)$.............  ..    ",
"        $)$...............      ",
"        $)$...............      ",
"      ..$)$.............  ..    ",
"      ..:<$.............  ..    ",
"    .. %[}$.............    ..  ",
"    .. %<|!.............    ..  ",
"....    1)*.............      ..",
"....    $)$.............      ..",
"        $2$.............        ",
"        $2$.............        ",
"        3)4.............        ",
"        $)$.............        ",
"      ..$56.............    ....",
"      ..$)$.............    ....",
"..  ..  *78.............  ..    ",
"..  ..  9<$.............  ..    ",
"  ..    *0a...............      ",
"  ..    bc$...............      "};
