/* XPM */
static char * 04_xpm[] = {
"32 32 174 2",
"  	c #1D1D1D",
". 	c #000000",
"+ 	c #F4FFFF",
"@ 	c #FFFFFF",
"# 	c #FFFEFF",
"$ 	c #FDFFFF",
"% 	c #D9E2E6",
"& 	c #F1FCFF",
"* 	c #EDF5FB",
"= 	c #F5FEFF",
"- 	c #D9E2E4",
"; 	c #EBF6F9",
"> 	c #F8FEFF",
", 	c #DAE3E7",
"' 	c #F2FFFF",
") 	c #F1F2F6",
"! 	c #E6ECF3",
"~ 	c #D8E0E4",
"{ 	c #F0FDFD",
"] 	c #EBF6FB",
"^ 	c #F2FDFF",
"/ 	c #EAF4FC",
"( 	c #FCFFFE",
"_ 	c #F4FFFE",
": 	c #DAE3E5",
"< 	c #F4FEFF",
"[ 	c #F1FCFD",
"} 	c #DBE1E6",
"| 	c #F0FBFE",
"1 	c #C9CFD4",
"2 	c #EEF2F3",
"3 	c #727D8E",
"4 	c #7E8698",
"5 	c #767F8E",
"6 	c #767D8D",
"7 	c #7C8798",
"8 	c #818799",
"9 	c #767E90",
"0 	c #80899A",
"a 	c #777F91",
"b 	c #E6EEF4",
"c 	c #E3EEF3",
"d 	c #CBCFD4",
"e 	c #F4FAFF",
"f 	c #7E869C",
"g 	c #272C3C",
"h 	c #2A2C3E",
"i 	c #5F647B",
"j 	c #2D2E40",
"k 	c #2C3043",
"l 	c #616479",
"m 	c #303243",
"n 	c #303241",
"o 	c #7F88A4",
"p 	c #E5E8EE",
"q 	c #F3FBFF",
"r 	c #D9E1E8",
"s 	c #7E859E",
"t 	c #2C2C3A",
"u 	c #2D2D3D",
"v 	c #5F6579",
"w 	c #2E303D",
"x 	c #322F40",
"y 	c #5D6579",
"z 	c #323141",
"A 	c #333243",
"B 	c #7F87A6",
"C 	c #E3E7ED",
"D 	c #E5EDF3",
"E 	c #7D849D",
"F 	c #737C9B",
"G 	c #30313E",
"H 	c #737D95",
"I 	c #7D86A5",
"J 	c #E8F0FB",
"K 	c #EBF3F9",
"L 	c #757C93",
"M 	c #30313C",
"N 	c #757C95",
"O 	c #E1E9F4",
"P 	c #E3EEF1",
"Q 	c #F5FFFF",
"R 	c #2F3140",
"S 	c #32323F",
"T 	c #767C93",
"U 	c #323446",
"V 	c #8F9AB8",
"W 	c #E4EBF4",
"X 	c #F6FFFF",
"Y 	c #D6E1E4",
"Z 	c #9298B6",
"` 	c #8088A8",
" .	c #7D88A6",
"..	c #8F98B5",
"+.	c #8F98B7",
"@.	c #8C97B6",
"#.	c #8E96B6",
"$.	c #E2EBF8",
"%.	c #767D96",
"&.	c #D8E2E8",
"*.	c #E8F0F7",
"=.	c #D8E3E4",
"-.	c #E8F1F5",
";.	c #E7F1F7",
">.	c #E7F2F5",
",.	c #E7F0F4",
"'.	c #8C99B7",
").	c #7E85A0",
"!.	c #D8E2E6",
"~.	c #5C6478",
"{.	c #757D91",
"].	c #F2F2F4",
"^.	c #F2FAFE",
"/.	c #F2FEFC",
"(.	c #757A94",
"_.	c #E1EAEE",
":.	c #C8D6F3",
"<.	c #B3BEDA",
"[.	c #F3FAFF",
"}.	c #D5DBE2",
"|.	c #B5C0DC",
"1.	c #9099B8",
"2.	c #D6E1E6",
"3.	c #EAF7FB",
"4.	c #B4BFDD",
"5.	c #8D98B7",
"6.	c #C9CEDC",
"7.	c #EAF6FD",
"8.	c #F0FDFF",
"9.	c #848DAC",
"0.	c #C9CEDA",
"a.	c #F1F3F4",
"b.	c #CED1DC",
"c.	c #848DAE",
"d.	c #CDD2DA",
"e.	c #EEF7FB",
"f.	c #D1D8DC",
"g.	c #CAD1D5",
"h.	c #DCE2E5",
"i.	c #F0FBFC",
"j.	c #F4FDFE",
"k.	c #F4FCFF",
"l.	c #FCFEFF",
"m.	c #CAD0D7",
"n.	c #9297B1",
"o.	c #7F879B",
"p.	c #F3F9FE",
"q.	c #5D657E",
"r.	c #5C647A",
"s.	c #757C97",
"t.	c #77808D",
"u.	c #EBF5FD",
"v.	c #F0F4F7",
"w.	c #5E667D",
"x.	c #5E667F",
"y.	c #757E8D",
"z.	c #EDF7FB",
"A.	c #EDF4F6",
"B.	c #E5EDF1",
"C.	c #767B95",
"D.	c #797C92",
"E.	c #E1ECEF",
"F.	c #F7FDFF",
"G.	c #F3F9FF",
"H.	c #D3DCE0",
"I.	c #F3FFFF",
"J.	c #F2F1F6",
"K.	c #E0E9ED",
"L.	c #EDF5F9",
"M.	c #F2FEFE",
"N.	c #F6FCFE",
"O.	c #FDFFFD",
"P.	c #EFF3F6",
"Q.	c #F2F3F7",
"    . .                   + @ # + @ $               . .         ",
"    . .               $ $ % + + % + & + $           . .         ",
"        . .         * = * - ; + % & & % > +         . .         ",
"        . .       @ , ' & % + + % ) + % ; & !       . .         ",
"            . . . # ~ { + % + ] % & + % ^ / !   . .             ",
"            . . ( _ : ' + % + < % & [ } | + ! 1 . .             ",
"        . .     @ 2 , 3 4 5 6 7 8 9 9 0 a b c d . .             ",
"        . .     $ e % f g h i j k l m n o p ! 1 . .             ",
". . . .         $ q r s t u v w x y z A B C D d             . . ",
". . . .         @ * % E w . F G . H z . I J D d             . . ",
"        . .     $ K , L M . B z . N A . B O P d         . .     ",
"        . .     $ Q - L R . B S . T U . V W D d         . .     ",
"            . . $ X Y Z `  ...+.B @.#.B #.$.c d     . .         ",
"            . . $ %.&.c *.=.-.;.- >.-.% ,.c c d     . .         ",
"                '.).L _ ] % & + % + & !.| & c d . .             ",
"                v ~.s {.& % & + % & ].% ^./.c d . .             ",
"            . . N N (._.] % & + % & + !.:.<.D d     . .         ",
"            . . [.L }.* ].!.] + % & ] % |.1.!.d     . .         ",
"        . .     $ _.2.] & % + & % _ 3.4.&.&.5.6.        . .     ",
"        . .     $ 7., 8.& % + & % + + .., & 9.0.        . .     ",
". . . .         @ a., 8.+ % + ].% [ ' b.c.9.d.d             . . ",
". . . .         $ e., & + % + ] % & & % r f.D g.            . . ",
"                $ X % + + % + ] % * ].% ^.Q D g.                ",
"                $ X h.2 i.% [ < % ] j.% k.' c g.                ",
"                l.E ~ _ + % & + % < + % ; a.! m.                ",
"                n.L o.+ ] % & ] % + + } ] p.D g.                ",
"            . . q.r.s.t.u.% < Q r v.+ % ] [ D g.        . . . . ",
"            . . w.x.L y.z.% + + % A.+ % z.< B.m.        . . . . ",
". .     . .     T C.D.E.< % + F.% & + % & + D g.    . .         ",
". .     . .     G.L H.I.8.% + J.% & + % & + D g.    . .         ",
"    . .         $ K.r L.M.% + + % [ ; % N.' D m.. .             ",
"    . .         O.j.!.P.= % + + % + + !.Q.u.D m.. .             "};
