/* XPM */
static char * pacfel4_xpm[] = {
"320 32 89 1",
" 	c #1D1D1D",
".	c #000000",
"+	c #414141",
"@	c #C0C0C0",
"#	c #E3E3E3",
"$	c #EDEDED",
"%	c #EEEEEE",
"&	c #FBFBFB",
"*	c #E8E8E8",
"=	c #FFFFFF",
"-	c #FDFDFD",
";	c #CBCBCB",
">	c #BCBCBC",
",	c #F4F4F4",
"'	c #E1E1E1",
")	c #050505",
"!	c #F8F8F8",
"~	c #FCFCFC",
"{	c #FEFEFE",
"]	c #7A7A7A",
"^	c #010101",
"/	c #020202",
"(	c #F6F6F6",
"_	c #F2F2F2",
":	c #F3F3F3",
"<	c #0C0C0C",
"[	c #F0F0F0",
"}	c #E4E4E4",
"|	c #F7F7F7",
"1	c #C3C3C3",
"2	c #DADADA",
"3	c #898989",
"4	c #B6B6B6",
"5	c #AAAAAA",
"6	c #C9C9C9",
"7	c #ECECEC",
"8	c #E7E7E7",
"9	c #9C9C9C",
"0	c #0E0E0E",
"a	c #090909",
"b	c #040404",
"c	c #F9F9F9",
"d	c #9D9D9D",
"e	c #2A2A2A",
"f	c #848484",
"g	c #939393",
"h	c #585858",
"i	c #D7D7D7",
"j	c #D9D9D9",
"k	c #494949",
"l	c #828282",
"m	c #0D0D0D",
"n	c #D0D0D0",
"o	c #737373",
"p	c #6C6C6C",
"q	c #2C2C2C",
"r	c #6F6F6F",
"s	c #B1B1B1",
"t	c #3B3B3B",
"u	c #282828",
"v	c #454545",
"w	c #F1F1F1",
"x	c #A0A0A0",
"y	c #A4A4A4",
"z	c #1C1C1C",
"A	c #606060",
"B	c #1B1B1B",
"C	c #FAFAFA",
"D	c #BFBFBF",
"E	c #626262",
"F	c #191919",
"G	c #030303",
"H	c #080808",
"I	c #212121",
"J	c #F5F5F5",
"K	c #A5A5A5",
"L	c #5D5D5D",
"M	c #A9A9A9",
"N	c #AEAEAE",
"O	c #313131",
"P	c #121212",
"Q	c #424242",
"R	c #151515",
"S	c #DDDDDD",
"T	c #CACACA",
"U	c #EFEFEF",
"V	c #5B5B5B",
"W	c #0B0B0B",
"X	c #8D8D8D",
"  ..            ..        ..      ..            ..        ..      ..            ..        ..      ..            ..        ..      ..            ..        ..      ..            ..        ..      ..            ..        ..      ..            ..        ..      ..            ..        ..      ..            ..        ..    ",
"  ..            ..        ..      ..            ..        ..      ..            ..        ..      ..    +       ..        ..      ..    +       ..        ..      ..    +       ..        ..      ..    +       ..        ..      ..    +       ..        ..      ..    +       ..        ..      ..    +       ..        ..    ",
"    ..          ..        ..        ..          ..        ..        ..          ..        ..        ..  +.+     ..  +     ..        ..  +.+     ..  +     ..        ..  +.+     ..  +     ..        ..  +.+     ..  +     ..        ..  +.+     ..  +     ..        ..  +.+     ..  +     ..        ..  +.+     ..  +     ..    ",
"    ..          ..        ..        ..          ..        ..        ..          ..        ..        ..  +..     .. ++     ..        ..  +..     .. ++     ..        ..  +..     .. ++     ..        ..  +..     .. ++     ..        ..  +..     .. ++     ..        ..  +..     .. ++     ..        ..  +..     .. ++     ..    ",
"      ...........+++++  .+            .........++++++++++.            .......++++++++++ ..            ..+...++++++++..  ..            ..+...++++++++..  ..            ..+...++++++++..  ..            ..+...++++++++..  ..            ..+...++++++++..  ..            ..+...++++++++..  ..            ..+...++++++++..  ..      ",
"      .........+@#$%&..+++            .......+++*=-=-;....+           .....+++..>>,'....+.            ..+..............+..            ..+..............+..            ..+..............+..            ..+..............+..            ..+..............+..            ..+..............+..            ..+..............+..      ",
"    ..       +++'===).....          ..      ++.=!====='>....        ..    ++...>====>>....          ..  +.................          ..  +.................          ..  +.................          ..  +.................          ..  +.................          ..  +.................          ..  +.................      ",
"    ..      ++.$=~{=)..]..          ..     ++..=--~=== ^/....+      ..  +++....====={(>....         ..+++.................          ..+++.................          ..+++.................          ..+++.................          ..+++.................          ..+++.................          ..+++.................      ",
"....       ++..]={==_>:,.     ......     +++...'=-====<.............  +++.....;-=====*......  ......  +.......*====........   ......  +.......*====........   ......  +.......*====........   ......  +.......*====........   ......  +.......*====........   ......  +.......*====........   ......  +.......*====........   ..",
"....      ++....>:[~}|~.      ......    ++......[{=====,..12. ...... ++.......]=&=====.......+......  +.....33=====4...5=>..  ......  +.....33=====4...5=>..  ......  +.....33=====4...5=>..  ......  +.....33=====4...5=>..  ......  +.....33=====4...5=>..  ......  +.....33=====4...5=>..  ......  +.....33=====4...5=>..  ..",
"    ..   ++.......>=~=.     ..      .. ++........6,==,..7==2..      ++.........8======>7......      ..+.....3=======9..(==....      ..+.....3=======9..(==....      ..+.....3=======9..(==....      ..+.....3=======9..(==....      ..+.....3=======9..(==....      ..+.....3=======9..(==....      ..+.....3=======9..(==....  ",
"    ..  ++.......>=-=.      ..      ..++.........0ab.]!===8...      .. .........c~~{===5..;...      .++.....=========..3==....      .++.....=========..3==....      .++.....======dd=e.3==....      .++.....====f<g==..3==....      .++.....=========e.3==....      .++.....=========..3==....      .++.....=========..3==....  ",
"      .++.......h{={..    ..         ++.............=~==!...          ++.........>====ih.>{j..       +......=======k...3=k...        +......=======k...3=k...        +......=====l.mno.plq...        +......===r...s=..tu=...        +......=====>vuno.plq...        +......=======k...3=k...        +......=======k...3=k...   ",
"     +++.......>===...    ..          ...........eo!=w=x. ..          +............;=;..8w=(.        +......=======....>=....        +......======>....>=....        +......=====......y.....        +......===z..^A=B.......        +......=====......y.....        +......======>....>=....        +......=======....>=....   ",
"     +.........C=[..  ....             ++........6!={C....          +++...............5D==(..        +......=======.....=....        +......======E.....=....        +......=====F^.....G....        +......===H/..F|I../....        +......=====F^.....G....        +......======E.....=....        +......=======.....=....   ",
"    ++........&[,..   ....            ++........&=='].....      +++++..............>>(=J!&..         +......=======.....=....        +......======K.....=....        +......=====............        +......===.../L~........        +......=====............        +......======K.....=....        +......=======.....=....   ",
"      ........~=......    ..        +++........|~=[...    ..    +..................>~={;,.M3.       ++......4======.....=....       ++......4======.....=....       ++......4====>......N....       ++......4==5F.3=|..OPQR..       ++......4====>......N....       ++......4======.....=....       ++......4======.....=....   ",
"     ++.......==. ....    ..       ++.........]==$....    ..        ..............*==;>..,JS>.     ++........4======....==...      ++........4======....==...      ++........4=====*....==...      ++........4======e..3==...      ++........4=====*....==...      ++........4======....==...      ++........4======....==...   ",
"    ++........=,..          ..    ++..........w{&].         ..      .............&C=>>.;*!_|*.     +............33.]..........     +............33.]..........     +............33.]..........     +............33.]..........     +............33.]..........     +............33.]..........     +............33.]..........  ",
"   ++.........,8,3.+        ..    +...  .....]={=]..+++++++++++     ...........]({='.33==wJ2..      ......]==........==3......      ......]==........==3......      ......]==........==3......      ......]==........==3......      ......]==........==3......      ......]==........==3......      ......]==........==3......  ",
"..++...   .....h:=='.+        ...++.    +.....*=&{==========-D......  +........*C=={>_{=c*... ...... +....c=============5.... ...... +....c=============5.... ...... +....c=============5.... ...... +....c=============5.... ...... +....c=============5.... ...... +....c=============5.... ...... +....c=============5.... ..",
"..+...    +....hT_=wCc.++     ......     ......38cJ========~UV......   ..........={==={=,]... ......  ...=====.;=========*..  ......  ...=====.;=========*..  ......  ...=====.;=========*..  ......  ...=====.;=========*..  ......  ...=====.;=========*..  ......  ...=====.;=========*..  ......  ...=====.;=========*..  ..",
"  +.      .........'8==>..               +..........W..........        +..........C==2'.....          +..====...==========..          +..====...==========..          +..====...==========..          +..====...==========..          +..====...==========..          +..====...==========..          +..====...==========..    ",
"          .+.........&-=CU<+              ....................          ....................           ...======......===..            ...======......===..            ...======......===..            ...======......===..            ...======......===..            ...======......===..            ...======......===..     ",
"        ..  ..........e%c-X.            .. ..................           ...................             .....===33h5hh....              .....===33h5hh....              .....===33h5hh....              .....===33h5hh....              .....===33h5hh....              .....===33h5hh....              .....===33h5hh....      ",
"        ..  ................            ..  ................            ..................              ......===:w(=5...               ......===:w(=5...               ......===:w(=5...               ......===:w(=5...               ......===:w(=5...               ......===:w(=5...               ......===:w(=5...       ",
"      ..    .. ..........   ....      ..    ............... ....      ..   ..............   ....      ..  ..............    ....      ..  ..............    ....      ..  ..............    ....      ..  ..............    ....      ..  ..............    ....      ..  ..............    ....      ..  ..............    ....",
"      ..    ..   .......    ....      ..    .. ..........   ....      ..    ............    ....      ..    ............    ....      ..    ............    ....      ..    ............    ....      ..    ............    ....      ..    ............    ....      ..    ............    ....      ..    ............    ....",
"..  ..        ..      ..  ..    ..  ..        ..      ..  ..    ..  ..        ..      ..  ..    ..  ..        ..      ..  ..    ..  ..        ..      ..  ..    ..  ..        ..      ..  ..    ..  ..        ..      ..  ..    ..  ..        ..      ..  ..    ..  ..        ..      ..  ..    ..  ..        ..      ..  ..    ",
"..  ..        ..      ..  ..    ..  ..        ..      ..  ..    ..  ..        ..      ..  ..    ..  ..        ..      ..  ..    ..  ..        ..      ..  ..    ..  ..        ..      ..  ..    ..  ..        ..      ..  ..    ..  ..        ..      ..  ..    ..  ..        ..      ..  ..    ..  ..        ..      ..  ..    ",
"  ..          ..        ..        ..          ..        ..        ..          ..        ..        ..          ..        ..        ..          ..        ..        ..          ..        ..        ..          ..        ..        ..          ..        ..        ..          ..        ..        ..          ..        ..      ",
"  ..          ..        ..        ..          ..        ..        ..          ..        ..        ..          ..        ..        ..          ..        ..        ..          ..        ..        ..          ..        ..        ..          ..        ..        ..          ..        ..        ..          ..        ..      "};
