/* XPM */
static char * 00_xpm[] = {
"32 32 7 1",
" 	c #535353",
".	c #040204",
"+	c #343434",
"@	c #525252",
"#	c #515151",
"$	c #333333",
"%	c #323232",
"                          ......",
"                          ......",
"  ++++++++++++++++++++..++......",
"  ++++++++++++++++++++..++......",
"  ++..++++++..++++++++++........",
"  ++..++++++..++++++++++........",
"  ++++++++++++++++++....++......",
"  ++++++++++++++++++....++......",
"  ++++++++..++++..++++++........",
"  ++++++++..++++..++++++........",
"  ++++..++++++....++++..........",
"  ++++..++++++....++++..........",
"................................",
"................................",
"................................",
"................................",
"          ......              @#",
"          ......              @@",
"++++++..++......  ++++++++++++$%",
"++++++..++......  +++++++++++++%",
"++++++++........  ++..++++++..$$",
"++++++++........  ++..++++++..+$",
"++++....++......  ++++++++++++%$",
"++++....++......  ++++++++++++..",
"..++++++........  ++++++++..++..",
"..++++++........  ++++++++..+++%",
"..++++..........  ++++..++++++++",
"..++++..........  ++++..++++++$$",
"................................",
"................................",
"................................",
"................................"};
